<svg width="44" height="330" viewBox="0 0 463 351" fill="none" xmlns="http://www.w3.org/2000/svg">
<path d="M452.991 7.64017e-06H6.6058C4.90556 0.00155465 3.27538 0.678051 2.07314 1.881C0.870905 3.08395 0.194851 4.71504 0.193359 6.41623V309.068C0.194851 310.77 0.870905 312.401 2.07314 313.604C3.27538 314.807 4.90556 315.483 6.6058 315.485H452.991C453.918 315.485 454.834 315.283 455.676 314.895C456.518 314.506 457.265 313.939 457.867 313.233C457.918 313.178 457.964 313.119 458.006 313.056C458.389 312.588 458.699 312.065 458.926 311.504C459.248 310.733 459.413 309.904 459.411 309.068V6.41626C459.409 4.71385 458.732 3.08182 457.528 1.87873C456.324 0.67564 454.692 -9.08763e-05 452.991 7.64017e-06ZM457.58 309.068C457.58 309.964 457.317 310.839 456.822 311.585C456.382 312.241 455.786 312.778 455.087 313.145C454.439 313.48 453.72 313.654 452.991 313.652H6.6058C5.39116 313.651 4.22668 313.167 3.3678 312.308C2.50892 311.449 2.02576 310.284 2.02428 309.068V6.41626C2.02576 5.20094 2.50892 4.03582 3.3678 3.17645C4.22668 2.31709 5.39116 1.83366 6.6058 1.83218H452.991C454.207 1.83203 455.373 2.3147 456.233 3.1742C457.094 4.0337 457.578 5.19974 457.58 6.41626V309.068Z" fill="#3F3D56"/>
<path d="M458.49 25.7159H1.10645V27.5501H458.49V25.7159Z" fill="#3F3D56"/>
<path d="M16.6891 19.2594C19.7264 19.2594 22.1887 16.7958 22.1887 13.7567C22.1887 10.7177 19.7264 8.25403 16.6891 8.25403C13.6517 8.25403 11.1895 10.7177 11.1895 13.7567C11.1895 16.7958 13.6517 19.2594 16.6891 19.2594Z" fill="#3F3D56"/>
<path d="M32.5006 19.2594C35.5379 19.2594 38.0002 16.7958 38.0002 13.7567C38.0002 10.7177 35.5379 8.25403 32.5006 8.25403C29.4632 8.25403 27.001 10.7177 27.001 13.7567C27.001 16.7958 29.4632 19.2594 32.5006 19.2594Z" fill="#3F3D56"/>
<path d="M48.3121 19.2594C51.3494 19.2594 53.8117 16.7958 53.8117 13.7567C53.8117 10.7177 51.3494 8.25403 48.3121 8.25403C45.2747 8.25403 42.8125 10.7177 42.8125 13.7567C42.8125 16.7958 45.2747 19.2594 48.3121 19.2594Z" fill="#3F3D56"/>
<path d="M404.252 158.692H47.5857C44.2712 158.689 41.0935 157.37 38.7498 155.025C36.4061 152.68 35.0877 149.5 35.084 146.184V70.3956C35.0877 67.0793 36.4061 63.8998 38.7498 61.5548C41.0935 59.2097 44.2712 57.8906 47.5857 57.8869H404.252C407.567 57.8906 410.745 59.2097 413.088 61.5548C415.432 63.8998 416.75 67.0793 416.754 70.3956V146.184C416.75 149.5 415.432 152.68 413.088 155.025C410.745 157.37 407.567 158.689 404.252 158.692ZM47.5857 59.3585C44.6611 59.3618 41.8573 60.5257 39.7893 62.5949C37.7213 64.664 36.5581 67.4694 36.5548 70.3956V146.184C36.5581 149.11 37.7213 151.915 39.7893 153.985C41.8573 156.054 44.6611 157.218 47.5857 157.221H404.252C407.177 157.218 409.981 156.054 412.049 153.985C414.117 151.915 415.28 149.11 415.283 146.184V70.3956C415.28 67.4694 414.117 64.664 412.049 62.5949C409.981 60.5257 407.177 59.3618 404.252 59.3585H47.5857Z" fill="#F2F2F2"/>
<path d="M126.273 295.553H47.5857C44.2712 295.549 41.0935 294.23 38.7498 291.885C36.4061 289.54 35.0877 286.36 35.084 283.044V227.122C35.0877 223.806 36.4061 220.627 38.7498 218.282C41.0935 215.937 44.2712 214.618 47.5857 214.614H126.273C129.588 214.618 132.765 215.937 135.109 218.282C137.453 220.627 138.771 223.806 138.775 227.122V283.044C138.771 286.36 137.453 289.54 135.109 291.885C132.765 294.23 129.588 295.549 126.273 295.553ZM47.5857 216.085C44.6611 216.089 41.8573 217.253 39.7893 219.322C37.7213 221.391 36.5581 224.196 36.5548 227.122V283.044C36.5581 285.97 37.7213 288.775 39.7893 290.845C41.8573 292.914 44.6611 294.078 47.5857 294.081H126.273C129.198 294.078 132.001 292.914 134.069 290.845C136.137 288.775 137.301 285.97 137.304 283.044V227.122C137.301 224.196 136.137 221.391 134.069 219.322C132.001 217.253 129.198 216.089 126.273 216.085H47.5857Z" fill="#F2F2F2"/>
<path d="M404.252 295.553H325.565C322.251 295.549 319.073 294.23 316.729 291.885C314.386 289.54 313.067 286.36 313.063 283.044V227.122C313.067 223.806 314.386 220.627 316.729 218.282C319.073 215.937 322.251 214.618 325.565 214.614H404.252C407.567 214.618 410.745 215.937 413.088 218.282C415.432 220.627 416.75 223.806 416.754 227.122V283.044C416.75 286.36 415.432 289.54 413.088 291.885C410.745 294.23 407.567 295.549 404.252 295.553ZM325.565 216.085C322.641 216.089 319.837 217.253 317.769 219.322C315.701 221.391 314.538 224.196 314.534 227.122V283.044C314.538 285.97 315.701 288.775 317.769 290.845C319.837 292.914 322.641 294.078 325.565 294.081H404.252C407.177 294.078 409.981 292.914 412.049 290.845C414.117 288.775 415.28 285.97 415.283 283.044V227.122C415.28 224.196 414.117 221.391 412.049 219.322C409.981 217.253 407.177 216.089 404.252 216.085H325.565Z" fill="#F2F2F2"/>
<path d="M271.146 295.553H192.459C189.144 295.549 185.967 294.23 183.623 291.885C181.279 289.54 179.961 286.36 179.957 283.044V227.122C179.961 223.806 181.279 220.627 183.623 218.282C185.967 215.937 189.144 214.618 192.459 214.614H271.146C274.461 214.618 277.638 215.937 279.982 218.282C282.326 220.627 283.644 223.806 283.648 227.122V283.044C283.644 286.36 282.326 289.54 279.982 291.885C277.638 294.23 274.461 295.549 271.146 295.553ZM192.459 216.085C189.534 216.089 186.73 217.253 184.662 219.322C182.594 221.391 181.431 224.196 181.428 227.122V283.044C181.431 285.97 182.594 288.775 184.662 290.845C186.73 292.914 189.534 294.078 192.459 294.081H271.146C274.071 294.078 276.874 292.914 278.942 290.845C281.01 288.775 282.174 285.97 282.177 283.044V227.122C282.174 224.196 281.01 221.391 278.942 219.322C276.874 217.253 274.071 216.089 271.146 216.085H192.459Z" fill="#F2F2F2"/>
<path d="M39.4598 61.3378L39.1104 62.767L415.844 154.992L416.193 153.563L39.4598 61.3378Z" fill="#F2F2F2"/>
<path d="M412.37 61.315L39.1143 153.836L39.468 155.264L412.724 62.7435L412.37 61.315Z" fill="#F2F2F2"/>
<path d="M418.96 184.078H62.2932C59.0762 184.074 55.9919 182.794 53.7172 180.518C51.4424 178.242 50.1628 175.156 50.1592 171.937V96.1487C50.1628 92.9299 51.4424 89.8439 53.7172 87.5679C55.9919 85.2918 59.0762 84.0115 62.2932 84.0079H418.96C422.177 84.0116 425.261 85.2919 427.536 87.5679C429.811 89.844 431.09 92.9299 431.094 96.1487V171.937C431.09 175.156 429.811 178.242 427.536 180.518C425.261 182.794 422.177 184.074 418.96 184.078Z" fill="white"/>
<path d="M184.889 217.936L183.984 219.097L278.237 292.661L279.141 291.501L184.889 217.936Z" fill="#F2F2F2"/>
<path d="M278.707 217.937L185.691 292.408L186.61 293.557L279.626 219.086L278.707 217.937Z" fill="#F2F2F2"/>
<path d="M40.015 217.937L39.1104 219.097L133.363 292.662L134.267 291.501L40.015 217.937Z" fill="#F2F2F2"/>
<path d="M133.835 217.937L40.8193 292.408L41.7382 293.557L134.754 219.086L133.835 217.937Z" fill="#F2F2F2"/>
<path d="M317.996 217.936L317.092 219.096L411.344 292.661L412.249 291.5L317.996 217.936Z" fill="#F2F2F2"/>
<path d="M411.813 217.937L318.798 292.408L319.717 293.557L412.732 219.086L411.813 217.937Z" fill="#F2F2F2"/>
<path d="M282.177 348.899H203.489C200.272 348.895 197.188 347.615 194.913 345.339C192.639 343.063 191.359 339.977 191.355 336.758V280.836C191.359 277.618 192.639 274.532 194.913 272.256C197.188 269.98 200.272 268.699 203.489 268.696H282.177C285.394 268.699 288.478 269.98 290.753 272.256C293.028 274.532 294.307 277.618 294.311 280.836V336.758C294.307 339.977 293.028 343.063 290.753 345.339C288.478 347.615 285.394 348.895 282.177 348.899Z" fill="#FBBC04"/>
<path d="M323.275 350.002H162.224C162.029 350.002 161.842 349.925 161.704 349.787C161.566 349.649 161.488 349.462 161.488 349.266C161.488 349.071 161.566 348.884 161.704 348.746C161.842 348.608 162.029 348.531 162.224 348.531H323.275C323.47 348.531 323.657 348.608 323.795 348.746C323.933 348.884 324.011 349.071 324.011 349.266C324.011 349.462 323.933 349.649 323.795 349.787C323.657 349.925 323.47 350.002 323.275 350.002Z" fill="#CCCCCC"/>
<path d="M253.094 304.75H232.503C230.943 304.75 229.447 304.13 228.343 303.026C227.24 301.922 226.62 300.425 226.62 298.864C226.62 297.303 227.24 295.805 228.343 294.701C229.447 293.597 230.943 292.977 232.503 292.977H253.094C254.655 292.977 256.151 293.597 257.254 294.701C258.358 295.805 258.978 297.303 258.978 298.864C258.978 300.425 258.358 301.922 257.254 303.026C256.151 304.13 254.655 304.75 253.094 304.75Z" fill="white"/>
<path d="M265.263 324.617H220.404C218.843 324.617 217.347 323.997 216.244 322.893C215.14 321.789 214.521 320.292 214.521 318.73C214.521 317.169 215.14 315.672 216.244 314.568C217.347 313.464 218.843 312.844 220.404 312.844H265.263C266.823 312.844 268.319 313.464 269.423 314.568C270.526 315.672 271.146 317.169 271.146 318.73C271.146 320.292 270.526 321.789 269.423 322.893C268.319 323.997 266.823 324.617 265.263 324.617Z" fill="white"/>
<path d="M138.774 306.222H60.0871C56.8701 306.218 53.7859 304.938 51.5111 302.662C49.2363 300.386 47.9568 297.3 47.9531 294.081V238.16C47.9568 234.941 49.2363 231.855 51.5111 229.579C53.7859 227.303 56.8701 226.022 60.0871 226.019H138.774C141.991 226.022 145.076 227.303 147.35 229.579C149.625 231.855 150.905 234.941 150.908 238.16V294.081C150.905 297.3 149.625 300.386 147.35 302.662C145.076 304.938 141.991 306.218 138.774 306.222Z" fill="#FBBC04"/>
<path d="M109.692 262.073H89.1009C87.5406 262.073 86.0442 261.453 84.9409 260.349C83.8376 259.245 83.2178 257.748 83.2178 256.187C83.2178 254.626 83.8376 253.128 84.9409 252.025C86.0442 250.921 87.5406 250.3 89.1009 250.3H109.692C111.252 250.3 112.749 250.921 113.852 252.025C114.955 253.128 115.575 254.626 115.575 256.187C115.575 257.748 114.955 259.245 113.852 260.349C112.749 261.453 111.252 262.073 109.692 262.073Z" fill="white"/>
<path d="M121.86 281.94H77.0013C75.441 281.94 73.9446 281.32 72.8413 280.216C71.738 279.112 71.1182 277.615 71.1182 276.054C71.1182 274.492 71.738 272.995 72.8413 271.891C73.9446 270.787 75.441 270.167 77.0013 270.167H121.86C123.421 270.167 124.917 270.787 126.02 271.891C127.124 272.995 127.744 274.492 127.744 276.054C127.744 277.615 127.124 279.112 126.02 280.216C124.917 281.32 123.421 281.94 121.86 281.94Z" fill="white"/>
<path d="M421.166 327.56H342.479C339.262 327.556 336.177 326.276 333.903 324C331.628 321.724 330.348 318.638 330.345 315.419V259.498C330.348 256.279 331.628 253.193 333.903 250.917C336.177 248.641 339.262 247.361 342.479 247.357H421.166C424.383 247.361 427.467 248.641 429.742 250.917C432.017 253.193 433.296 256.279 433.3 259.498V315.419C433.296 318.638 432.017 321.724 429.742 324C427.467 326.276 424.383 327.556 421.166 327.56Z" fill="#E6E6E6"/>
<path d="M392.084 283.412H371.493C369.932 283.412 368.436 282.792 367.333 281.688C366.229 280.584 365.609 279.086 365.609 277.525C365.609 275.964 366.229 274.467 367.333 273.363C368.436 272.259 369.932 271.639 371.493 271.639H392.084C393.644 271.639 395.14 272.259 396.244 273.363C397.347 274.467 397.967 275.964 397.967 277.525C397.967 279.086 397.347 280.584 396.244 281.688C395.14 282.792 393.644 283.412 392.084 283.412Z" fill="white"/>
<path d="M404.252 303.279H359.393C357.833 303.279 356.336 302.658 355.233 301.554C354.13 300.451 353.51 298.953 353.51 297.392C353.51 295.831 354.13 294.334 355.233 293.23C356.336 292.126 357.833 291.506 359.393 291.506H404.252C405.812 291.506 407.309 292.126 408.412 293.23C409.515 294.334 410.135 295.831 410.135 297.392C410.135 298.953 409.515 300.451 408.412 301.554C407.309 302.658 405.812 303.279 404.252 303.279Z" fill="white"/>
<path d="M462.264 328.664H301.213C301.018 328.664 300.831 328.586 300.693 328.448C300.555 328.31 300.478 328.123 300.478 327.928C300.478 327.733 300.555 327.546 300.693 327.408C300.831 327.27 301.018 327.192 301.213 327.192H462.264C462.46 327.192 462.647 327.27 462.785 327.408C462.922 327.546 463 327.733 463 327.928C463 328.123 462.922 328.31 462.785 328.448C462.647 328.586 462.46 328.664 462.264 328.664Z" fill="#CCCCCC"/>
<path d="M418.96 184.446H62.2937C58.9792 184.442 55.8015 183.123 53.4578 180.778C51.1141 178.433 49.7957 175.253 49.792 171.937V96.1489C49.7957 92.8325 51.1141 89.653 53.4578 87.308C55.8015 84.963 58.9792 83.6439 62.2937 83.6402H418.96C422.275 83.6439 425.453 84.963 427.796 87.308C430.14 89.653 431.458 92.8325 431.462 96.1489V171.937C431.458 175.253 430.14 178.433 427.796 180.778C425.453 183.123 422.275 184.442 418.96 184.446ZM62.2937 85.1118C59.3691 85.1151 56.5653 86.279 54.4973 88.3481C52.4293 90.4173 51.2661 93.2227 51.2628 96.1489V171.937C51.2661 174.863 52.4293 177.669 54.4973 179.738C56.5653 181.807 59.3691 182.971 62.2937 182.974H418.96C421.885 182.971 424.689 181.807 426.757 179.738C428.825 177.669 429.988 174.863 429.991 171.937V96.1489C429.988 93.2227 428.825 90.4173 426.757 88.3481C424.689 86.279 421.885 85.1151 418.96 85.1118H62.2937Z" fill="#3F3D56"/>
<path d="M211.075 109.266L211.224 103.038C209.214 106.462 205.417 110.334 202.184 112.942C206.334 113.064 211.697 113.853 215.365 115.366L211.541 110.561C229.484 106.567 246.91 113.884 253.342 128.297L254.594 127.738C247.876 112.683 229.714 105.046 211.075 109.266Z" fill="#3F3D56"/>
<path d="M318.804 143H172.069C165.964 143 161 147.979 161 154.103V164.129C161 170.252 165.964 175.231 172.069 175.231H318.804C324.91 175.231 329.873 170.252 329.873 164.129V154.103C329.873 147.979 324.91 143 318.804 143Z" fill="#FBBC04"/>
<path d="M150.878 139.889C162.961 139.889 172.757 130.064 172.757 117.945C172.757 105.825 162.961 96 150.878 96C138.795 96 129 105.825 129 117.945C129 130.064 138.795 139.889 150.878 139.889Z" fill="#FBBC04"/>
<path d="M155.029 108.152C152.321 108.264 149.273 108.436 147.224 110.458C145.527 112.132 144.934 114.739 146.493 116.71C148.135 118.786 150.865 119.18 153.008 120.507C154.34 121.331 155.223 122.58 155.252 124.185C155.278 125.688 154.587 127.092 153.431 128.034C150.595 130.345 146.727 129.388 144.044 127.367C143.517 126.97 143.005 127.862 143.527 128.255C145.749 129.929 148.61 130.901 151.375 130.181C153.92 129.518 155.97 127.51 156.246 124.827C156.537 121.998 154.685 120.073 152.284 118.968C150.09 117.958 146.241 116.882 146.604 113.745C147.065 109.756 151.934 109.308 155.029 109.181C155.687 109.153 155.69 108.125 155.029 108.152Z" fill="white"/>
<path d="M150.322 106.287L150.199 134.511C150.196 135.173 151.222 135.174 151.225 134.511L151.348 106.287C151.351 105.625 150.325 105.624 150.322 106.287Z" fill="white"/>
</svg>
